<svg id="Warstwa_1" data-name="Warstwa 1" xmlns="http://www.w3.org/2000/svg" viewBox="0 0 399 399"><defs><style>.cls-1{fill:#76c2af;}.cls-2{fill:#66a293;}.cls-3{isolation:isolate;}.cls-4{fill:#fff;}</style></defs><title>about me</title><circle class="cls-1" cx="199.5" cy="199.5" r="199.5"/><path class="cls-2" d="M125.33,180.77s2.9-48,6.19-56.87,7.41-24,21.51-26.7a74.17,74.17,0,0,1,27.94,0c6.36,1.12,6.67,1.73,15.57.49s10.64-3.41,23.25-2,22.75,4.67,29.18,4.42,6.92-2.22,8.65,1.49,8.15,43.51,9.15,48.71,2,27.94,2.22,30.41,7.49-17.8,7.42-28.19c0-6.69-1.55-50.69-11.87-54.15,0,0-.27-20-23.75-33.62-20.8-12-22.81-7.42-30.15-10.14-6.09-2.26-20.52-5.19-32.89-1.73,0,0-7.66,0-12.11,1.23,0,0-8.16.74-11.13,3,0,0-17.31,3.46-19.78,10.88,0,0-5.44,4.2-6.68,8.41,0,0-9.64,9.15-8.15,20.52,0,0-1,9.4-2.48,13.84,0,0-2.72,7.17,5.44-2.72,0,0-3.17,11.42-3.46,17.31C119,133.8,117.88,174.83,125.33,180.77Z"/><path class="cls-2" d="M262.12,151.88c-.45-.78-11.63-1.7-17.17-2S227,150,221.46,151c-5.76,1-19.18,3.16-25.64,3.16S176,152,170.19,151a141,141,0,0,0-23.5-1.13c-5.53.34-16.71,1.26-17.16,2s-.45,6.77,0,7.56a20,20,0,0,1,1.92,4.52c.11,1,1.35,5.77,2,8.76s4.29,12.92,6.33,13.94,10.05,3.27,21.45,2.82,14.9-2.46,18.41-5.76a42.46,42.46,0,0,0,6.33-9c1.27-2.57,3.5-8.7,4.51-10.51s4-2.14,5.31-2.14,4.29.33,5.31,2.14,3.24,7.94,4.52,10.51a42.06,42.06,0,0,0,6.32,9c3.51,3.3,7,5.31,18.41,5.76s19.43-1.81,21.46-2.82,5.64-11,6.32-13.94,1.92-7.75,2-8.76a20,20,0,0,1,1.92-4.52C262.57,158.65,262.57,152.66,262.12,151.88Zm-78,21.05a21.84,21.84,0,0,1-9.6,11.9c-3.05,1.7-10.73,3.28-19.43,2.83s-13-2.83-14.34-4.63c-.94-1.26-3.39-5.65-3.95-16.49s2.59-11.11,6.21-12.13,11.06-1.55,16.94-1.54a58.85,58.85,0,0,1,11.4.9c4.86.91,7.35,1.59,12.09,4.52s2.78,8.32.64,14.64Zm70.81-6.39c-.57,10.84-3,15.23-4,16.49-1.36,1.8-5.65,4.17-14.35,4.63s-16.37-1.13-19.42-2.83a21.81,21.81,0,0,1-9.6-11.9c-2.15-6.32-4.07-11.7.68-14.64a29,29,0,0,1,12-4.52,59,59,0,0,1,11.41-.9c5.87,0,13.32.53,16.94,1.54s6.77,1.28,6.21,12.13Z"/><path class="cls-2" d="M271.73,228.6c-2.84,0-16.55,10.62-21.24,15.88-6.46,7.26-11.34,18.71-27.79,27.22S203.11,276,196.34,276s-9.92,4.22-26.36-4.29-21.33-20-27.8-27.22c-4.68-5.26-17.71-15.88-20.55-15.88s6,10.66,8.92,14.15c3.26,3.85,6,8.53,11.63,16.47s7.38,16.45,22.12,25.53,49.33,9.07,64.07,0,16.45-17.58,22.12-25.53,8.38-12.62,11.64-16.47C265.09,239.31,274.56,228.6,271.73,228.6Z"/><path class="cls-2" d="M242.23,234.42c-6.14-21.69-85.64-21.69-91.79,0-5.71,20.16-4,21.32,0,32.16s11.79,4.33,12.1-3c.14-3.36,2.72-31,8.5-32.45s25.3,0,25.3,0,19.52-1.45,25.3,0,8.36,29.09,8.5,32.45c.3,7.29,8.12,13.81,12.09,3S248,254.58,242.23,234.42Z"/><g class="cls-3"><path class="cls-2" d="M128.33,334.93H120l-1.15,4.76h-5.54l8-31.2h6l7.7,31.2h-5.5Zm-7.28-4.63h6.23l-2.89-12.74h-.32Z"/><path class="cls-2" d="M148.53,316.37a9.84,9.84,0,0,1,3.6.62,8,8,0,0,1,2.7,1.72,7.32,7.32,0,0,1,1.72,2.66,9.73,9.73,0,0,1,.6,3.52v6.28a9.78,9.78,0,0,1-.6,3.5,7.52,7.52,0,0,1-1.72,2.71,7.41,7.41,0,0,1-2.7,1.71,10.06,10.06,0,0,1-3.6.6H146.7a10,10,0,0,1-3.59-.6,7.26,7.26,0,0,1-4.42-4.42,9.78,9.78,0,0,1-.6-3.5V308.49h5.41V317a10.62,10.62,0,0,1,3.57-.6Zm-1.83,5.27a3,3,0,0,0-2.31.92,3.45,3.45,0,0,0-.89,2.33V331a3.55,3.55,0,0,0,.87,2.47,3,3,0,0,0,2.33,1h1.83a3.16,3.16,0,0,0,2.39-1,3.44,3.44,0,0,0,.91-2.47v-6a3.36,3.36,0,0,0-.91-2.45,3.22,3.22,0,0,0-2.39-.94Z"/><path class="cls-2" d="M170.57,316.37a9.82,9.82,0,0,1,3.59.62,8,8,0,0,1,2.71,1.72,7.32,7.32,0,0,1,1.72,2.66,10,10,0,0,1,.59,3.52v6.28a10,10,0,0,1-.59,3.5,7.52,7.52,0,0,1-1.72,2.71,7.37,7.37,0,0,1-2.71,1.71,10,10,0,0,1-3.59.6h-1.88a10.13,10.13,0,0,1-3.57-.6,7.37,7.37,0,0,1-2.73-1.71,7.2,7.2,0,0,1-1.69-2.71,10,10,0,0,1-.58-3.5v-6.28a10,10,0,0,1,.58-3.52,7,7,0,0,1,1.69-2.66,7.94,7.94,0,0,1,2.73-1.72,9.91,9.91,0,0,1,3.57-.62Zm-1.88,5.27a3.35,3.35,0,0,0-2.4.94,3.22,3.22,0,0,0-1,2.45v6a3.33,3.33,0,0,0,3.39,3.43h1.88a3.19,3.19,0,0,0,2.4-1,3.38,3.38,0,0,0,.94-2.47v-6a3.3,3.3,0,0,0-.94-2.45,3.26,3.26,0,0,0-2.4-.94Z"/><path class="cls-2" d="M192.65,334.47a5,5,0,0,0,1.85-.28,3,3,0,0,0,1.15-.73,2.55,2.55,0,0,0,.62-1.1,5,5,0,0,0,.18-1.37V316.37h5.36v23.32h-5.36v-.6a6.16,6.16,0,0,1-1.58.46,11.46,11.46,0,0,1-1.81.14h-2.33a8.69,8.69,0,0,1-3.6-.69,7.36,7.36,0,0,1-2.54-1.81,7.58,7.58,0,0,1-1.54-2.56,8.45,8.45,0,0,1-.53-2.91V316.37h5.32v14.25a7.83,7.83,0,0,0,.14,1.51,2.77,2.77,0,0,0,.55,1.22,2.67,2.67,0,0,0,1.14.82,5.33,5.33,0,0,0,2,.3Z"/><path class="cls-2" d="M204.33,316.37h4.31v-7.88H214v7.88h4.31v5.27H214v18.05h-5.4V321.64h-4.31Z"/></g><g class="cls-3"><path class="cls-2" d="M244.24,331h.32q1.24-5.62,2.5-11.24c.84-3.75,1.67-7.49,2.49-11.25h6.56v31.15h-4.49V319.44h-.28q-1.09,5.08-2.29,10.15t-2.24,10.1l-5,.05-4.26-20.25h-.32v20.2H232.7V308.54h6.55Z"/><path class="cls-2" d="M259.54,324.67a7.94,7.94,0,0,1,.64-3.19,9.15,9.15,0,0,1,1.7-2.63A7.88,7.88,0,0,1,264.3,317a6.22,6.22,0,0,1,2.75-.67h5.23a6.61,6.61,0,0,1,3.18.76,7.58,7.58,0,0,1,2.34,1.92,9.28,9.28,0,0,1,1.46,2.61,8.3,8.3,0,0,1,.53,2.82v5.91H265v1.24a2.71,2.71,0,0,0,.91,2.33,3.94,3.94,0,0,0,2.43.69H279v5.13H267.1a6.91,6.91,0,0,1-2.93-.62,7.83,7.83,0,0,1-2.41-1.67,7.64,7.64,0,0,1-1.62-2.52,8.33,8.33,0,0,1-.6-3.2ZM265,326h9.48v-.23a4.62,4.62,0,0,0-.91-2.95,3,3,0,0,0-2.48-1.17h-2.83a2.58,2.58,0,0,0-1.33.34,3.33,3.33,0,0,0-1,.89,4.62,4.62,0,0,0-.67,1.31,5.17,5.17,0,0,0-.25,1.58Z"/></g><g class="cls-3"><path class="cls-4" d="M126.63,333.79h-8.38l-1.15,4.77h-5.54l8-31.2h6l7.7,31.2h-5.5Zm-7.28-4.62h6.23l-2.89-12.74h-.32Z"/><path class="cls-4" d="M146.83,315.24a9.84,9.84,0,0,1,3.6.62,7.85,7.85,0,0,1,2.7,1.72,7.28,7.28,0,0,1,1.72,2.65,9.79,9.79,0,0,1,.6,3.53V330a9.78,9.78,0,0,1-.6,3.5,7.48,7.48,0,0,1-1.72,2.7,7.57,7.57,0,0,1-2.7,1.72,10.06,10.06,0,0,1-3.6.6H145a10,10,0,0,1-3.59-.6,7.38,7.38,0,0,1-4.43-4.42,10,10,0,0,1-.59-3.5V307.36h5.4v8.47a10.93,10.93,0,0,1,3.58-.59ZM145,320.51a3,3,0,0,0-2.31.91,3.48,3.48,0,0,0-.9,2.34v6.09a3.56,3.56,0,0,0,.87,2.48,3,3,0,0,0,2.34,1h1.83a3.17,3.17,0,0,0,2.39-1,3.45,3.45,0,0,0,.91-2.48v-6a3.34,3.34,0,0,0-.91-2.45,3.19,3.19,0,0,0-2.39-.94Z"/><path class="cls-4" d="M168.87,315.24a9.82,9.82,0,0,1,3.59.62,7.8,7.8,0,0,1,2.71,1.72,7.26,7.26,0,0,1,1.71,2.65,9.79,9.79,0,0,1,.6,3.53V330a9.78,9.78,0,0,1-.6,3.5,7.33,7.33,0,0,1-4.42,4.42,10,10,0,0,1-3.59.6H167a10.13,10.13,0,0,1-3.57-.6,7.52,7.52,0,0,1-2.73-1.72,7.16,7.16,0,0,1-1.69-2.7,10,10,0,0,1-.58-3.5v-6.28a10,10,0,0,1,.58-3.53,7,7,0,0,1,1.69-2.65,7.8,7.8,0,0,1,2.73-1.72,9.91,9.91,0,0,1,3.57-.62ZM167,320.51a3.35,3.35,0,0,0-2.41.94,3.24,3.24,0,0,0-1,2.45v6a3.32,3.32,0,0,0,3.39,3.44h1.88a3.21,3.21,0,0,0,2.4-1,3.39,3.39,0,0,0,.94-2.48v-6a3.29,3.29,0,0,0-.94-2.45,3.23,3.23,0,0,0-2.4-.94Z"/><path class="cls-4" d="M191,333.33a5.28,5.28,0,0,0,1.85-.27,3.07,3.07,0,0,0,1.15-.73,2.61,2.61,0,0,0,.62-1.1,5.11,5.11,0,0,0,.18-1.38V315.24h5.36v23.32h-5.36V338a6.58,6.58,0,0,1-1.58.46,11.56,11.56,0,0,1-1.81.14H189a8.68,8.68,0,0,1-3.59-.69,7.36,7.36,0,0,1-2.54-1.81,7.68,7.68,0,0,1-1.54-2.56,8.53,8.53,0,0,1-.53-2.91V315.24h5.32v14.25a7.11,7.11,0,0,0,.14,1.51,2.74,2.74,0,0,0,.55,1.21A2.68,2.68,0,0,0,188,333a5.35,5.35,0,0,0,2,.29Z"/><path class="cls-4" d="M202.63,315.24h4.31v-7.88h5.4v7.88h4.31v5.27h-4.31v18.05h-5.4V320.51h-4.31Z"/></g><g class="cls-3"><path class="cls-4" d="M242.54,329.9h.32q1.23-5.64,2.5-11.25t2.49-11.24h6.55v31.15h-4.48V318.31h-.28q-1.09,5.08-2.29,10.15t-2.25,10.1l-5,0-4.26-20.25h-.32v20.21H231V307.41h6.55Z"/><path class="cls-4" d="M257.84,323.53a7.89,7.89,0,0,1,.64-3.18,9.34,9.34,0,0,1,1.7-2.64,8.21,8.21,0,0,1,2.42-1.81,6.34,6.34,0,0,1,2.75-.66h5.23a6.5,6.5,0,0,1,3.18.76,7.58,7.58,0,0,1,2.34,1.92,9.28,9.28,0,0,1,1.46,2.61,8.21,8.21,0,0,1,.53,2.82v5.91H263.25v1.23a2.75,2.75,0,0,0,.91,2.34,3.94,3.94,0,0,0,2.43.69h10.67v5.13H265.4a7.06,7.06,0,0,1-2.93-.62,7.83,7.83,0,0,1-2.41-1.67,7.48,7.48,0,0,1-1.62-2.52,8.41,8.41,0,0,1-.6-3.21Zm5.45,1.38h9.48v-.23a4.66,4.66,0,0,0-.91-3,3,3,0,0,0-2.48-1.17h-2.84a2.58,2.58,0,0,0-1.32.35,3.2,3.2,0,0,0-1,.89,4.49,4.49,0,0,0-.67,1.31,5.17,5.17,0,0,0-.25,1.58Z"/></g></svg>