<?xml version="1.0" encoding="utf-8"?>
<!-- Generator: Adobe Illustrator 22.1.0, SVG Export Plug-In . SVG Version: 6.00 Build 0)  -->
<svg version="1.1" id="Warstwa_1" xmlns="http://www.w3.org/2000/svg" xmlns:xlink="http://www.w3.org/1999/xlink" x="0px" y="0px"
	 viewBox="0 0 399 399" style="enable-background:new 0 0 399 399;" xml:space="preserve">
<style type="text/css">
	.st0{fill:#B2B2B2;}
	.st1{fill:#575756;}
	.st2{enable-background:new    ;}
	.st3{fill:#F6F6F6;}
</style>
<title>about me</title>
<circle class="st0" cx="199.5" cy="199.5" r="199.5"/>
<path class="st1" d="M125.3,180.8c0,0,2.9-48,6.2-56.9s7.4-24,21.5-26.7c9.2-1.8,18.7-1.8,27.9,0c6.4,1.1,6.7,1.7,15.6,0.5
	s10.6-3.4,23.3-1.9s22.8,4.7,29.2,4.4s6.9-2.2,8.6,1.5c1.7,3.7,8.1,43.5,9.1,48.7s2,27.9,2.2,30.4s7.5-17.8,7.4-28.2
	c0-6.7-1.5-50.7-11.9-54.2c0,0-0.3-20-23.7-33.6c-20.8-12-22.8-7.4-30.1-10.1c-6.1-2.3-20.5-5.2-32.9-1.7c0,0-7.7,0-12.1,1.2
	c0,0-8.2,0.7-11.1,3c0,0-17.3,3.5-19.8,10.9c0,0-5.4,4.2-6.7,8.4c0,0-9.6,9.2-8.2,20.5c0,0-1,9.4-2.5,13.8c0,0-2.7,7.2,5.4-2.7
	c0,0-3.2,11.4-3.5,17.3C119,133.8,117.9,174.8,125.3,180.8z"/>
<path class="st1" d="M262.1,151.9c-0.5-0.8-11.6-1.7-17.2-2s-18,0.2-23.5,1.1c-5.8,1-19.2,3.2-25.6,3.2S176,152,170.2,151
	c-7.8-1-15.6-1.4-23.5-1.1c-5.5,0.3-16.7,1.3-17.2,2s-0.4,6.8,0,7.6c0.8,1.4,1.5,2.9,1.9,4.5c0.1,1,1.4,5.8,2,8.8s4.3,12.9,6.3,13.9
	s10.1,3.3,21.4,2.8s14.9-2.5,18.4-5.8c2.5-2.7,4.6-5.7,6.3-9c1.3-2.6,3.5-8.7,4.5-10.5s4-2.1,5.3-2.1s4.3,0.3,5.3,2.1
	s3.2,7.9,4.5,10.5c1.7,3.3,3.8,6.3,6.3,9c3.5,3.3,7,5.3,18.4,5.8s19.4-1.8,21.5-2.8s5.6-11,6.3-13.9s1.9-7.8,2-8.8
	c0.5-1.6,1.1-3.1,1.9-4.5C262.6,158.6,262.6,152.7,262.1,151.9z M184.1,172.9c-1.7,5-5.1,9.2-9.6,11.9c-3.1,1.7-10.7,3.3-19.4,2.8
	s-13-2.8-14.3-4.6c-0.9-1.3-3.4-5.6-3.9-16.5s2.6-11.1,6.2-12.1s11.1-1.6,16.9-1.5c3.8-0.1,7.6,0.2,11.4,0.9
	c4.9,0.9,7.4,1.6,12.1,4.5S186.2,166.6,184.1,172.9L184.1,172.9z M254.9,166.5c-0.6,10.8-3,15.2-3.9,16.5c-1.4,1.8-5.6,4.2-14.4,4.6
	s-16.4-1.1-19.4-2.8c-4.5-2.7-7.9-6.9-9.6-11.9c-2.1-6.3-4.1-11.7,0.7-14.6c3.6-2.4,7.7-3.9,12-4.5c3.8-0.7,7.6-1,11.4-0.9
	c5.9,0,13.3,0.5,16.9,1.5S255.4,155.7,254.9,166.5L254.9,166.5z"/>
<path class="st1" d="M271.7,228.6c-2.8,0-16.5,10.6-21.2,15.9c-6.5,7.3-11.3,18.7-27.8,27.2s-19.6,4.3-26.4,4.3s-9.9,4.2-26.4-4.3
	s-21.3-20-27.8-27.2c-4.7-5.3-17.7-15.9-20.6-15.9s6,10.7,8.9,14.1c3.3,3.9,6,8.5,11.6,16.5s7.4,16.5,22.1,25.5s49.3,9.1,64.1,0
	s16.4-17.6,22.1-25.5c5.7-8,8.4-12.6,11.6-16.5C265.1,239.3,274.6,228.6,271.7,228.6z"/>
<path class="st1" d="M242.2,234.4c-6.1-21.7-85.6-21.7-91.8,0c-5.7,20.2-4,21.3,0,32.2s11.8,4.3,12.1-3c0.1-3.4,2.7-31,8.5-32.4
	s25.3,0,25.3,0s19.5-1.4,25.3,0s8.4,29.1,8.5,32.4c0.3,7.3,8.1,13.8,12.1,3S247.9,254.6,242.2,234.4z"/>
<g class="st2">
	<path class="st3" d="M128.3,334.9h-8.4l-1.1,4.8h-5.5l8-31.2h6l7.7,31.2h-5.5L128.3,334.9z M121,330.3h6.2l-2.9-12.7h-0.3
		L121,330.3z"/>
	<path class="st3" d="M148.5,316.4c1.3,0,2.5,0.2,3.6,0.6c1.1,0.4,2,1,2.7,1.7c0.7,0.7,1.3,1.6,1.7,2.7c0.4,1,0.6,2.2,0.6,3.5v6.3
		c0,1.3-0.2,2.5-0.6,3.5c-0.4,1.1-1,2-1.7,2.7c-0.7,0.7-1.6,1.3-2.7,1.7c-1.1,0.4-2.3,0.6-3.6,0.6h-1.8c-1.3,0-2.5-0.2-3.6-0.6
		c-1.1-0.4-2-1-2.7-1.7c-0.7-0.7-1.3-1.6-1.7-2.7s-0.6-2.2-0.6-3.5v-6.3v-0.4v-16h5.4v8.5c1.1-0.4,2.3-0.6,3.6-0.6H148.5z
		 M146.7,321.6c-1,0-1.7,0.3-2.3,0.9c-0.6,0.6-0.9,1.4-0.9,2.3v6.1c0,1,0.3,1.8,0.9,2.5c0.6,0.6,1.4,1,2.3,1h1.8c1,0,1.8-0.3,2.4-1
		c0.6-0.6,0.9-1.5,0.9-2.5v-6c0-1-0.3-1.8-0.9-2.5c-0.6-0.6-1.4-0.9-2.4-0.9H146.7z"/>
	<path class="st3" d="M170.6,316.4c1.3,0,2.5,0.2,3.6,0.6c1.1,0.4,2,1,2.7,1.7c0.7,0.7,1.3,1.6,1.7,2.7c0.4,1,0.6,2.2,0.6,3.5v6.3
		c0,1.3-0.2,2.5-0.6,3.5c-0.4,1.1-1,2-1.7,2.7c-0.7,0.7-1.6,1.3-2.7,1.7c-1.1,0.4-2.3,0.6-3.6,0.6h-1.9c-1.3,0-2.5-0.2-3.6-0.6
		c-1.1-0.4-2-1-2.7-1.7c-0.7-0.7-1.3-1.6-1.7-2.7s-0.6-2.2-0.6-3.5v-6.3c0-1.3,0.2-2.5,0.6-3.5c0.4-1,0.9-1.9,1.7-2.7
		c0.7-0.7,1.7-1.3,2.7-1.7c1.1-0.4,2.3-0.6,3.6-0.6H170.6z M168.7,321.6c-0.9,0-1.7,0.3-2.4,0.9c-0.7,0.6-1,1.4-1,2.5v6
		c0,1,0.3,1.8,1,2.5c0.7,0.6,1.5,1,2.4,1h1.9c1,0,1.8-0.3,2.4-1c0.6-0.6,0.9-1.5,0.9-2.5v-6c0-1-0.3-1.8-0.9-2.5
		c-0.6-0.6-1.4-0.9-2.4-0.9H168.7z"/>
	<path class="st3" d="M192.6,334.5c0.8,0,1.4-0.1,1.9-0.3s0.9-0.4,1.1-0.7c0.3-0.3,0.5-0.7,0.6-1.1c0.1-0.4,0.2-0.9,0.2-1.4v-14.6
		h5.4v23.3h-5.4v-0.6c-0.5,0.2-1,0.4-1.6,0.5s-1.2,0.1-1.8,0.1h-2.3c-1.4,0-2.6-0.2-3.6-0.7c-1-0.5-1.9-1.1-2.5-1.8
		c-0.7-0.7-1.2-1.6-1.5-2.6c-0.4-1-0.5-1.9-0.5-2.9v-15.3h5.3v14.2c0,0.5,0,1.1,0.1,1.5c0.1,0.5,0.3,0.9,0.5,1.2
		c0.3,0.4,0.7,0.6,1.1,0.8c0.5,0.2,1.1,0.3,2,0.3H192.6z"/>
	<path class="st3" d="M204.3,316.4h4.3v-7.9h5.4v7.9h4.3v5.3H214v18h-5.4v-18h-4.3V316.4z"/>
</g>
<g class="st2">
	<path class="st3" d="M244.2,331h0.3c0.8-3.8,1.7-7.5,2.5-11.2s1.7-7.5,2.5-11.2h6.6v31.2h-4.5v-20.2h-0.3
		c-0.7,3.4-1.5,6.8-2.3,10.1c-0.8,3.4-1.5,6.7-2.2,10.1l-5,0l-4.3-20.2h-0.3v20.2h-4.5v-31.2h6.6L244.2,331z"/>
	<path class="st3" d="M259.5,324.7c0-1.1,0.2-2.2,0.6-3.2c0.4-1,1-1.9,1.7-2.6c0.7-0.8,1.5-1.4,2.4-1.8c0.9-0.4,1.8-0.7,2.7-0.7h5.2
		c1.2,0,2.3,0.3,3.2,0.8c0.9,0.5,1.7,1.1,2.3,1.9c0.6,0.8,1.1,1.6,1.5,2.6s0.5,1.9,0.5,2.8v5.9h-14.8v1.2c0,1.1,0.3,1.9,0.9,2.3
		s1.4,0.7,2.4,0.7H279v5.1h-11.9c-1,0-2-0.2-2.9-0.6c-0.9-0.4-1.7-1-2.4-1.7c-0.7-0.7-1.2-1.5-1.6-2.5c-0.4-1-0.6-2-0.6-3.2V324.7z
		 M265,326h9.5v-0.2c0-1.2-0.3-2.2-0.9-3c-0.6-0.8-1.4-1.2-2.5-1.2h-2.8c-0.5,0-0.9,0.1-1.3,0.3c-0.4,0.2-0.7,0.5-1,0.9
		c-0.3,0.4-0.5,0.8-0.7,1.3s-0.3,1-0.3,1.6V326z"/>
</g>
</svg>
