<svg id="Warstwa_1" data-name="Warstwa 1" xmlns="http://www.w3.org/2000/svg" viewBox="0 0 100 100"><defs><style>.cls-1{fill:#75c3b0;}.cls-2{fill:#66a294;}.cls-3{fill:#f1f2f2;}.cls-4{fill:#fff;}</style></defs><title>Bez nazwy-2</title><circle class="cls-1" cx="50" cy="50" r="49.5"/><rect class="cls-2" x="46.9" y="19.12" width="6.76" height="63.47" rx="3.25" ry="3.25" transform="matrix(0.93, 0.36, -0.36, 0.93, 21.55, -14.64)"/><path class="cls-2" d="M66.79,66.82a3.54,3.54,0,0,1-2.09-6.41l13-9.48a0,0,0,0,0,0,0L64.87,41.42a3.7,3.7,0,0,1-1-5,3.54,3.54,0,0,1,5-.89L85.84,48a3.63,3.63,0,0,1,1.06,1.18,3.57,3.57,0,0,1-1,4.58l-17,12.35A3.52,3.52,0,0,1,66.79,66.82Z"/><path class="cls-2" d="M33.78,34.88a3.54,3.54,0,0,1,2.09,6.41l-13,9.48a0,0,0,0,0,0,0L35.7,60.28a3.7,3.7,0,0,1,1,5,3.54,3.54,0,0,1-5,.89l-17-12.46a3.42,3.42,0,0,1-1.06-1.18,3.56,3.56,0,0,1,1-4.58l17-12.35A3.52,3.52,0,0,1,33.78,34.88Z"/><rect class="cls-3" x="46.34" y="17.42" width="6.76" height="63.47" rx="3.25" ry="3.25" transform="translate(20.91 -14.55) rotate(20.99)"/><path class="cls-4" d="M66.22,65.12a3.54,3.54,0,0,1-2.09-6.41l13-9.48a0,0,0,0,0,0,0L64.3,39.72a3.7,3.7,0,0,1-1-5,3.54,3.54,0,0,1,5-.89l17,12.46a3.42,3.42,0,0,1,1.06,1.18,3.56,3.56,0,0,1-1,4.58l-17,12.35A3.52,3.52,0,0,1,66.22,65.12Z"/><path class="cls-4" d="M33.21,33.18a3.54,3.54,0,0,1,2.09,6.41l-13,9.48a0,0,0,0,0,0,0l12.87,9.46a3.7,3.7,0,0,1,1,5,3.54,3.54,0,0,1-5,.89L14.16,52a3.63,3.63,0,0,1-1.06-1.18,3.57,3.57,0,0,1,1-4.58l17-12.35A3.52,3.52,0,0,1,33.21,33.18Z"/></svg>