<?xml version="1.0" encoding="utf-8"?>
<!-- Generator: Adobe Illustrator 22.1.0, SVG Export Plug-In . SVG Version: 6.00 Build 0)  -->
<svg version="1.1" id="Warstwa_1" xmlns="http://www.w3.org/2000/svg" xmlns:xlink="http://www.w3.org/1999/xlink" x="0px" y="0px"
	 viewBox="0 0 100 100" style="enable-background:new 0 0 100 100;" xml:space="preserve">
<style type="text/css">
	.st0{fill:#75C3B0;}
	.st1{fill:#66A395;}
	.st2{fill:#FFFFFF;}
</style>
<title>buty</title>
<circle class="st0" cx="50" cy="50" r="49.5"/>
<path class="st1" d="M-11-48.2c-0.2-3.3,0.2-6.6,1.4-9.6c1.2-2.9,3.2-5,6.5-5.4c3.2-0.4,6.3,1.2,7.8,4c3.7,6.3,5.5,12.9,3.5,20.2
	c-0.4,1.3-0.8,2.7-1.3,4c-0.6,1.9,0.5,4.8-1.2,5.8c-2.7,1.5-6,2-9.1,2.9c-0.8,0.3-1.7-0.1-2-0.9c0-0.1-0.1-0.2-0.1-0.2
	C-7.9-34.4-11.7-41-11-48.2z"/>
<path class="st1" d="M44.4-60.4c0.5,7.3-3.2,13.8-5.4,20.7c-0.1,0.4-0.3,0.7-0.6,0.9c-2.1,1.5-11.2-2.8-11.4-5.4
	c-0.1-2.1-0.6-4.1-1.3-6c-2.6-7.2-0.9-13.9,2.5-20.3c1.7-3.3,4.4-5.4,8.4-5c3.9,0.4,5.9,3.3,7,6.8C44.3-66.1,44.6-63.2,44.4-60.4z"
	/>
<path class="st1" d="M11.2-14.5c0.1,4-2.4,6.6-6.3,6.7c-4.7,0.1-9.2-5.4-9.3-11.4c0-1.8,7-4.9,11.1-5C8.6-24.2,11.1-18.9,11.2-14.5z
	"/>
<path class="st1" d="M37.8-31.6c-0.5,3.6-1.5,6.9-4.1,9.4c-2.1,2.2-5.5,2.7-8.2,1.2c-2.9-1.4-3.4-4-3.2-6.8c0.1-0.5,0.2-1,0.3-1.5
	c1.6-7.7,2.1-8,9.5-5.8c1.3,0.4,2.7,0.8,4.1,1.1S38.1-32.9,37.8-31.6z"/>
<path class="st2" d="M-12.2-49.3c-0.2-3.3,0.2-6.6,1.4-9.6c1.2-2.9,3.2-5,6.5-5.4c3.2-0.4,6.3,1.2,7.8,4C7.2-54,9-47.4,7-40.1
	c-0.4,1.4-0.8,2.7-1.3,4c-0.6,1.9,0.6,4.8-1.2,5.8c-2.7,1.5-6,2-9.1,2.9c-0.8,0.3-1.7-0.1-2-0.9c0-0.1-0.1-0.2-0.1-0.3
	C-9-35.5-12.8-42.1-12.2-49.3z"/>
<path class="st2" d="M43.3-61.6c0.5,7.3-3.2,13.8-5.4,20.7c-0.1,0.4-0.3,0.7-0.6,0.9c-2.1,1.5-11.2-2.8-11.4-5.4
	c-0.1-2.1-0.6-4.1-1.3-6c-2.6-7.2-0.8-13.9,2.5-20.3c1.7-3.3,4.4-5.4,8.4-5c3.9,0.4,5.9,3.3,7,6.8C43.2-67.2,43.5-64.4,43.3-61.6z"
	/>
<path class="st2" d="M10-15.7c0,4-2.4,6.6-6.3,6.7C-1-8.8-5.5-14.3-5.6-20.4c0-1.8,7-4.9,11.1-5C7.5-25.4,10-20,10-15.7z"/>
<path class="st2" d="M36.7-32.7c-0.5,3.6-1.5,6.9-4.2,9.4C30.4-21,27-20.5,24.3-22c-2.8-1.4-3.4-4-3.2-6.8c0.1-0.5,0.2-1,0.3-1.5
	c1.6-7.7,2.1-8,9.5-5.8c1.4,0.4,2.7,0.8,4.1,1.1S37-34,36.7-32.7z"/>
<g>
	<g>
		<path class="st1" d="M37.8,72.6c0,0.7-0.6,1.4-1.3,1.7L20,80.2c-0.7,0.3-1.3-0.1-1.3-0.8v-52c0-0.7,0.6-1.4,1.3-1.7l16.6-5.9
			c0.7-0.3,1.3,0.1,1.3,0.8V72.6z M37.8,72.6"/>
		<path class="st1" d="M59.6,79.4c0,0.7-0.6,1-1.3,0.8l-16.6-5.9c-0.7-0.3-1.3-1-1.3-1.7v-52c0-0.7,0.6-1,1.3-0.8l16.6,5.9
			c0.7,0.3,1.3,1,1.3,1.7V79.4z M59.6,79.4"/>
		<path class="st1" d="M81.3,72.6c0,0.7-0.6,1.4-1.3,1.7l-16.6,5.9c-0.7,0.3-1.3-0.1-1.3-0.8v-52c0-0.7,0.6-1.4,1.3-1.7L80,19.8
			c0.7-0.3,1.3,0.1,1.3,0.8V72.6z M81.3,72.6"/>
	</g>
</g>
<g>
	<g>
		<path class="st2" d="M36.1,70.3c0,0.7-0.6,1.4-1.3,1.7l-16.6,5.9c-0.7,0.3-1.3-0.1-1.3-0.8v-52c0-0.7,0.6-1.4,1.3-1.7l16.6-5.9
			c0.7-0.3,1.3,0.1,1.3,0.8V70.3z M36.1,70.3"/>
		<path class="st2" d="M57.9,77.2c0,0.7-0.6,1-1.3,0.8L40,72c-0.7-0.3-1.3-1-1.3-1.7v-52c0-0.7,0.6-1,1.3-0.8l16.6,5.9
			c0.7,0.3,1.3,1,1.3,1.7V77.2z M57.9,77.2"/>
		<path class="st2" d="M79.6,70.3c0,0.7-0.6,1.4-1.3,1.7l-16.6,5.9c-0.7,0.3-1.3-0.1-1.3-0.8v-52c0-0.7,0.6-1.4,1.3-1.7l16.6-5.9
			c0.7-0.3,1.3,0.1,1.3,0.8V70.3z M79.6,70.3"/>
	</g>
</g>
</svg>
