<svg id="Warstwa_1" data-name="Warstwa 1" xmlns="http://www.w3.org/2000/svg" viewBox="0 0 100 100"><defs><style>.cls-1{fill:#75c3b0;}.cls-2{fill:#66a395;}.cls-3{fill:#fff;}</style></defs><title>buty</title><circle class="cls-1" cx="50" cy="50" r="49.5"/><path class="cls-2" d="M22.29,43.5a22.08,22.08,0,0,1,1.42-9.63c1.23-2.9,3.24-5,6.47-5.37a7.71,7.71,0,0,1,7.77,4c3.7,6.26,5.54,12.92,3.47,20.21-.39,1.35-.84,2.69-1.27,4-.62,1.93.55,4.8-1.21,5.77-2.73,1.51-6,2-9.09,2.9a1.56,1.56,0,0,1-2.1-1.11C25.43,57.29,21.66,50.65,22.29,43.5Z"/><path class="cls-2" d="M77.72,31.23c.5,7.26-3.17,13.8-5.45,20.68a1.92,1.92,0,0,1-.62.94c-2.09,1.51-11.23-2.77-11.4-5.37a21.34,21.34,0,0,0-1.27-6c-2.59-7.2-.89-13.89,2.45-20.33,1.71-3.3,4.44-5.42,8.36-5s5.95,3.25,7,6.75A22.31,22.31,0,0,1,77.72,31.23Z"/><path class="cls-2" d="M44.47,77.15c.06,4-2.39,6.63-6.3,6.74-4.68.14-9.2-5.41-9.3-11.43,0-1.76,7-4.9,11.07-5C41.91,67.44,44.41,72.78,44.47,77.15Z"/><path class="cls-2" d="M71.11,60.11C70.62,63.72,69.6,67,67,69.52a6.78,6.78,0,0,1-8.18,1.23c-2.86-1.38-3.41-4-3.17-6.83a13,13,0,0,1,.29-1.51c1.58-7.65,2.1-8,9.47-5.83,1.35.39,2.7.79,4.07,1.13S71.45,58.77,71.11,60.11Z"/><path class="cls-3" d="M21.15,42.37a22.12,22.12,0,0,1,1.43-9.64c1.23-2.9,3.23-5,6.47-5.36a7.68,7.68,0,0,1,7.76,4c3.7,6.26,5.54,12.92,3.47,20.2-.38,1.36-.84,2.69-1.27,4-.62,1.93.56,4.8-1.2,5.77-2.73,1.51-6,2-9.09,2.91a1.56,1.56,0,0,1-2.11-1.12C24.29,56.16,20.53,49.52,21.15,42.37Z"/><path class="cls-3" d="M76.59,30.09c.49,7.27-3.17,13.8-5.45,20.69a2,2,0,0,1-.62.94c-2.1,1.5-11.24-2.77-11.4-5.38a21.35,21.35,0,0,0-1.27-6C55.25,33.16,57,26.46,60.3,20c1.71-3.3,4.44-5.42,8.36-5s5.94,3.25,7,6.75A22.47,22.47,0,0,1,76.59,30.09Z"/><path class="cls-3" d="M43.34,76c0,4-2.39,6.62-6.3,6.74-4.69.13-9.2-5.42-9.3-11.43,0-1.76,7-4.9,11.07-5C40.77,66.3,43.27,71.64,43.34,76Z"/><path class="cls-3" d="M70,59c-.5,3.61-1.51,6.91-4.15,9.42a6.79,6.79,0,0,1-8.19,1.23c-2.85-1.39-3.4-4-3.16-6.83a13,13,0,0,1,.29-1.51c1.58-7.65,2.1-8,9.46-5.84,1.36.4,2.71.8,4.08,1.14S70.32,57.64,70,59Z"/></svg>