<svg id="Warstwa_1" data-name="Warstwa 1" xmlns="http://www.w3.org/2000/svg" viewBox="0 0 157.81 146.77"><defs><style>.cls-1{fill:#fff;}</style></defs><title>hello</title><path d="M129.07,3.23H36.49A32.62,32.62,0,0,0,3.88,35.85V86.24a32.61,32.61,0,0,0,22.83,31.12L59.34,150V118.86h69.73a32.62,32.62,0,0,0,32.62-32.62V35.85A32.63,32.63,0,0,0,129.07,3.23Z" transform="translate(-3.88 -3.23)"/><path class="cls-1" d="M57.77,80.52h-7.2V64.28H38.05V80.52H30.78V41.58h7.27V57.76H50.57V41.58h7.2Z" transform="translate(-3.88 -3.23)"/><path class="cls-1" d="M62.35,61.77a9.86,9.86,0,0,1,.8-4,11.72,11.72,0,0,1,2.11-3.29,10,10,0,0,1,3-2.25,7.69,7.69,0,0,1,3.43-.83h6.52a8.2,8.2,0,0,1,4,.94,9.66,9.66,0,0,1,2.92,2.4A11.47,11.47,0,0,1,87,58a10.39,10.39,0,0,1,.65,3.52v7.38H69.1v1.54a3.44,3.44,0,0,0,1.14,2.92,4.93,4.93,0,0,0,3,.85H86.59v6.41H71.78a8.93,8.93,0,0,1-3.66-.77,9.87,9.87,0,0,1-3-2.09,9.7,9.7,0,0,1-2-3.15,10.62,10.62,0,0,1-.74-4Zm6.8,1.71H81V63.2a5.8,5.8,0,0,0-1.14-3.69,3.75,3.75,0,0,0-3.09-1.46H73.21a3.17,3.17,0,0,0-1.65.43,4.07,4.07,0,0,0-1.26,1.11,5.55,5.55,0,0,0-.83,1.63,6.22,6.22,0,0,0-.32,2Z" transform="translate(-3.88 -3.23)"/><path class="cls-1" d="M92.14,41.58h6.75V80.52H92.14Z" transform="translate(-3.88 -3.23)"/><path class="cls-1" d="M104.49,41.58h6.75V80.52h-6.75Z" transform="translate(-3.88 -3.23)"/><path class="cls-1" d="M128.85,51.42a12.11,12.11,0,0,1,4.49.77,9.81,9.81,0,0,1,3.37,2.14,9.16,9.16,0,0,1,2.15,3.32,12.38,12.38,0,0,1,.74,4.4v7.84a12.4,12.4,0,0,1-.74,4.37,9.4,9.4,0,0,1-2.15,3.38,9.26,9.26,0,0,1-3.37,2.14,12.55,12.55,0,0,1-4.49.74h-2.34a12.61,12.61,0,0,1-4.46-.74,9.34,9.34,0,0,1-3.41-2.14,9.06,9.06,0,0,1-2.11-3.38,12.64,12.64,0,0,1-.72-4.37V62.05a12.61,12.61,0,0,1,.72-4.4,8.82,8.82,0,0,1,2.11-3.32,9.9,9.9,0,0,1,3.41-2.14,12.17,12.17,0,0,1,4.46-.77ZM126.51,58a4.18,4.18,0,0,0-3,1.18,4,4,0,0,0-1.22,3v7.44A4.14,4.14,0,0,0,126.51,74h2.34a4,4,0,0,0,3-1.2A4.25,4.25,0,0,0,133,69.66V62.22a4.14,4.14,0,0,0-1.18-3,4,4,0,0,0-3-1.18Z" transform="translate(-3.88 -3.23)"/></svg>