<svg id="Warstwa_1" data-name="Warstwa 1" xmlns="http://www.w3.org/2000/svg" viewBox="0 0 100 100"><defs><style>.cls-1{fill:#f5de1a;}.cls-2{fill:#160d0b;}.cls-3{fill:#f6df19;}</style></defs><title>mern</title><rect class="cls-1" width="100" height="100" rx="50" ry="50"/><path class="cls-2" d="M25,58.18c.29-.81.59-1.62.87-2.44q2.61-7.52,5.19-15c.17-.51.49-.52.9-.51,1.09,0,1-.18,1,1,0,6.37,0,12.73,0,19.09,0,.59-.12.8-.75.77-1.19-.05-1,0-1-1,0-4.56,0-9.12,0-13.68a1.06,1.06,0,0,0-.15-.71l-1.32,3.88Q27.87,55,26,60.42a.73.73,0,0,1-.84.61c-1.48-.05-1.12.16-1.57-1.15C22,55.13,20.4,50.37,18.77,45.54a1.2,1.2,0,0,0-.16.71q0,6.93,0,13.85c0,1,.09.89-.93.93-.54,0-.75-.08-.75-.69q0-9.73,0-19.45c0-.54.12-.73.68-.7,1.2.07.94-.17,1.34,1l5.63,16.38c.07.21.15.41.22.61Z"/><path class="cls-2" d="M70,43.56c-.2.15-.13.34-.13.51V60.24c0,.78,0,.78-.77.78a1.5,1.5,0,0,0-.3,0c-.46.07-.61-.08-.61-.58,0-2.14,0-4.28,0-6.42,0-4.4,0-8.8,0-13.2,0-.49.12-.6.61-.64a1.61,1.61,0,0,1,1.66.9c3.33,5.31,6.72,10.6,10.09,15.9l.44.68c.24-.16.16-.36.16-.52,0-5.41,0-10.82,0-16.23,0-.59.18-.79.74-.71a1,1,0,0,0,.35,0c.47-.07.6.1.6.58q0,9.84,0,19.68c0,.45-.13.53-.56.58a1.63,1.63,0,0,1-1.73-1c-3.4-5.41-6.85-10.8-10.29-16.19A2.42,2.42,0,0,0,70,43.56Z"/><path class="cls-2" d="M51.43,50.59c0-3.25,0-6.51,0-9.76,0-.47.09-.65.61-.64,2.46,0,4.92,0,7.37.06a4.46,4.46,0,0,1,4.44,3.3,10.6,10.6,0,0,1-.18,7.32,4.15,4.15,0,0,1-1.59,2c-.29.19-.31.38-.2.69.79,2.31,1.54,4.62,2.34,6.92.14.42,0,.5-.36.51-1.16,0-1.16,0-1.53-1-.67-1.94-1.34-3.89-2-5.84a.59.59,0,0,0-.67-.48q-3,.06-6,0c-.45,0-.58.13-.57.57,0,2,0,4.09,0,6.13,0,.46-.12.62-.6.62-1.08,0-1.08,0-1.08-1.05Z"/><path class="cls-2" d="M37.61,50.6c0-3.27,0-6.54,0-9.81,0-.48.12-.6.6-.6,2.91,0,5.82,0,8.74,0,.71,0,.61.38.64.82s-.07.74-.66.73c-2.36,0-4.72,0-7.08,0-.43,0-.58.09-.58.55,0,2,0,4,0,5.95,0,.4.12.49.5.48,1.54,0,3.09,0,4.64,0,.46,0,.53.11.37.54-.41,1.12-.39,1.13-1.57,1.13s-2.34,0-3.51,0c-.34,0-.43.1-.43.44,0,2.77,0,5.55,0,8.33,0,.43.21.41.51.41,2.38,0,4.76,0,7.13,0,.63,0,.61.3.6.73s.1.8-.59.79c-2.9,0-5.79,0-8.69,0-.48,0-.63-.11-.63-.62C37.62,57.14,37.61,53.87,37.61,50.6Z"/><path class="cls-3" d="M53.1,46.9c0-1.55,0-3.09,0-4.64,0-.39.12-.51.5-.51,1.79,0,3.57,0,5.35,0a3.36,3.36,0,0,1,3.42,2.59,9.51,9.51,0,0,1-.22,5.78A2.73,2.73,0,0,1,59.5,52c-2,.07-4,0-6,.05-.37,0-.41-.16-.41-.47C53.11,50,53.1,48.46,53.1,46.9Z"/></svg>