<?xml version="1.0" encoding="utf-8"?>
<!-- Generator: Adobe Illustrator 22.1.0, SVG Export Plug-In . SVG Version: 6.00 Build 0)  -->
<svg version="1.1" id="Warstwa_1" xmlns="http://www.w3.org/2000/svg" xmlns:xlink="http://www.w3.org/1999/xlink" x="0px" y="0px"
	 viewBox="0 0 100 100" style="enable-background:new 0 0 100 100;" xml:space="preserve">
<style type="text/css">
	.st0{fill:#75C3B0;}
	.st1{fill:#66A395;}
	.st2{fill:#FFFFFF;}
</style>
<title>buty</title>
<circle class="st0" cx="50" cy="50" r="49.5"/>
<g>
	<path class="st1" d="M34.3,18.8h31.3c1.2,0,2.2,1,2.2,2.2v4.6c0,1.2-1,2.2-2.2,2.2H34.3c-1.2,0-2.2-1-2.2-2.2V21
		C32.2,19.8,33.1,18.8,34.3,18.8z"/>
	<path class="st1" d="M79.2,32H20.8c-1.2,0-2.2,1-2.2,2.2v31.3c0,1.2,1,2.2,2.2,2.2h4.6c1.2,0,2.2-1,2.2-2.2v-8.9
		c0-1.2,1-2.2,2.2-2.2H70c1.2,0,2.2,1,2.2,2.2v8.9c0,1.2,1,2.2,2.2,2.2h4.9c1.2,0,2.2-1,2.2-2.2V34.2C81.3,33,80.4,32,79.2,32z
		 M74.6,41L74.6,41c-1.2,0-2.2-1-2.2-2.2v0c0-1.2,1-2.2,2.2-2.2l0,0c1.2,0,2.2,1,2.2,2.2v0C76.7,40,75.8,41,74.6,41z"/>
	<path class="st1" d="M34.3,58.8h31.3c1.2,0,2.2,1,2.2,2.2V79c0,1.2-1,2.2-2.2,2.2H34.3c-1.2,0-2.2-1-2.2-2.2V60.9
		C32.2,59.7,33.1,58.8,34.3,58.8z"/>
</g>
<g>
	<path class="st2" d="M32.6,17.1H64c1.2,0,2.2,1,2.2,2.2v4.6c0,1.2-1,2.2-2.2,2.2H32.6c-1.2,0-2.2-1-2.2-2.2v-4.6
		C30.5,18.1,31.4,17.1,32.6,17.1z"/>
	<path class="st2" d="M77.5,30.3H19.1c-1.2,0-2.2,1-2.2,2.2v31.3c0,1.2,1,2.2,2.2,2.2h4.6c1.2,0,2.2-1,2.2-2.2v-8.9
		c0-1.2,1-2.2,2.2-2.2h40.2c1.2,0,2.2,1,2.2,2.2v8.9c0,1.2,1,2.2,2.2,2.2h4.9c1.2,0,2.2-1,2.2-2.2V32.5
		C79.6,31.3,78.7,30.3,77.5,30.3z M72.9,39.3L72.9,39.3c-1.2,0-2.2-1-2.2-2.2v0c0-1.2,1-2.2,2.2-2.2h0c1.2,0,2.2,1,2.2,2.2v0
		C75,38.3,74.1,39.3,72.9,39.3z"/>
	<path class="st2" d="M32.6,57.1H64c1.2,0,2.2,1,2.2,2.2v18.1c0,1.2-1,2.2-2.2,2.2H32.6c-1.2,0-2.2-1-2.2-2.2V59.2
		C30.5,58,31.4,57.1,32.6,57.1z"/>
</g>
</svg>
