<svg id="Warstwa_1" data-name="Warstwa 1" xmlns="http://www.w3.org/2000/svg" viewBox="0 0 100 100"><defs><style>.cls-1{fill:#75c3b0;}.cls-2{fill:#66a395;}.cls-3{fill:#fff;}.cls-4{fill:#96d4c4;}.cls-5{fill:#6f8e87;}.cls-6{fill:#a8dbd0;}.cls-7{fill:#cfeae3;}.cls-8{fill:#55c0a1;}.cls-9{fill:#6fc59e;}.cls-10{fill:#b7e1d7;}</style></defs><title>strona</title><circle class="cls-1" cx="50" cy="50" r="49.5"/><path class="cls-2" d="M21.25,73.31a5.45,5.45,0,0,0,5.44,5.44H73.31a5.45,5.45,0,0,0,5.44-5.44V40.87H21.25Z"/><path class="cls-2" d="M73.31,21.25H26.69a5.45,5.45,0,0,0-5.44,5.44V37.45h57.5V26.69A5.45,5.45,0,0,0,73.31,21.25Z"/><rect class="cls-2" x="21.25" y="37.45" width="57.5" height="3.42"/><rect class="cls-2" x="26.56" y="43.75" width="18.36" height="28.61" rx="3.75" ry="3.75"/><rect class="cls-2" x="47.08" y="45.12" width="27.89" height="3.91" rx="1.96" ry="1.96"/><rect class="cls-2" x="47.08" y="52.44" width="27.89" height="3.91" rx="1.96" ry="1.96"/><rect class="cls-2" x="47.08" y="59.75" width="27.89" height="3.91" rx="1.96" ry="1.96"/><rect class="cls-2" x="47.08" y="67.07" width="27.89" height="3.91" rx="1.96" ry="1.96"/><circle class="cls-2" cx="28.27" cy="29.87" r="3.33"/><circle class="cls-2" cx="37.45" cy="29.87" r="3.33"/><circle class="cls-2" cx="46.63" cy="29.87" r="3.33"/><path class="cls-3" d="M19.55,71.6A5.45,5.45,0,0,0,25,77.05H71.6a5.45,5.45,0,0,0,5.45-5.45V39.17H19.55Z"/><path class="cls-4" d="M71.6,19.55H25A5.45,5.45,0,0,0,19.55,25V35.75h57.5V25A5.45,5.45,0,0,0,71.6,19.55Z"/><rect class="cls-5" x="19.55" y="35.75" width="57.5" height="3.42"/><rect class="cls-6" x="24.86" y="42.04" width="18.36" height="28.61" rx="3.75" ry="3.75"/><rect class="cls-7" x="45.38" y="43.42" width="27.89" height="3.91" rx="1.96" ry="1.96"/><rect class="cls-7" x="45.38" y="50.74" width="27.89" height="3.91" rx="1.96" ry="1.96"/><rect class="cls-7" x="45.38" y="58.05" width="27.89" height="3.91" rx="1.96" ry="1.96"/><rect class="cls-7" x="45.38" y="65.37" width="27.89" height="3.91" rx="1.96" ry="1.96"/><circle class="cls-8" cx="26.57" cy="28.17" r="3.33"/><circle class="cls-9" cx="35.75" cy="28.17" r="3.33"/><circle class="cls-10" cx="44.93" cy="28.17" r="3.33"/></svg>