<?xml version="1.0" encoding="utf-8"?>
<!-- Generator: Adobe Illustrator 22.1.0, SVG Export Plug-In . SVG Version: 6.00 Build 0)  -->
<svg version="1.1" id="Warstwa_1" xmlns="http://www.w3.org/2000/svg" xmlns:xlink="http://www.w3.org/1999/xlink" x="0px" y="0px"
	 viewBox="0 0 100 100" style="enable-background:new 0 0 100 100;" xml:space="preserve">
<style type="text/css">
	.st0{fill:#75C3B0;}
	.st1{fill:#66A395;}
	.st2{fill:#FFFFFF;}
</style>
<title>strona</title>
<circle class="st0" cx="50" cy="50" r="49.5"/>
<g>
	<g>
		<path class="st1" d="M21.3,40.9v32.4c0,3,2.4,5.5,5.5,5.5h46.6c3,0,5.5-2.4,5.5-5.5V40.9H21.3z M44.9,68.6c0,2.1-1.7,3.8-3.8,3.8
			H30.3c-2.1,0-3.8-1.7-3.8-3.8V47.5c0-2.1,1.7-3.8,3.8-3.8h10.9c2.1,0,3.8,1.7,3.8,3.8V68.6z M73,71H49c-1.1,0-2-0.9-2-2s0.9-2,2-2
			h24c1.1,0,2,0.9,2,2S74.1,71,73,71z M73,63.7H49c-1.1,0-2-0.9-2-2s0.9-2,2-2h24c1.1,0,2,0.9,2,2S74.1,63.7,73,63.7z M73,56.4H49
			c-1.1,0-2-0.9-2-2s0.9-2,2-2h24c1.1,0,2,0.9,2,2S74.1,56.4,73,56.4z M73,49H49c-1.1,0-2-0.9-2-2s0.9-2,2-2h24c1.1,0,2,0.9,2,2
			S74.1,49,73,49z"/>
	</g>
	<g>
		<path class="st1" d="M73.3,21.3L73.3,21.3H26.7c-3,0-5.5,2.4-5.5,5.5v10.8h57.5V26.7C78.8,23.7,76.3,21.3,73.3,21.3z M28.3,33.2
			c-1.8,0-3.3-1.5-3.3-3.3s1.5-3.3,3.3-3.3s3.3,1.5,3.3,3.3S30.1,33.2,28.3,33.2z M37.5,33.2c-1.8,0-3.3-1.5-3.3-3.3
			s1.5-3.3,3.3-3.3s3.3,1.5,3.3,3.3S39.3,33.2,37.5,33.2z M46.6,33.2c-1.8,0-3.3-1.5-3.3-3.3s1.5-3.3,3.3-3.3S50,28,50,29.9
			S48.5,33.2,46.6,33.2z"/>
	</g>
</g>
<g>
	<g>
		<path class="st2" d="M19.5,39.2v32.4c0,3,2.4,5.5,5.5,5.5h46.6c3,0,5.5-2.4,5.5-5.5V39.2H19.5z M43.2,66.9c0,2.1-1.7,3.8-3.8,3.8
			H28.6c-2.1,0-3.8-1.7-3.8-3.8V45.8c0-2.1,1.7-3.8,3.8-3.8h10.9c2.1,0,3.8,1.7,3.8,3.8V66.9z M71.3,69.3h-24c-1.1,0-2-0.9-2-2
			s0.9-2,2-2h24c1.1,0,2,0.9,2,2S72.4,69.3,71.3,69.3z M71.3,62h-24c-1.1,0-2-0.9-2-2s0.9-2,2-2h24c1.1,0,2,0.9,2,2S72.4,62,71.3,62
			z M71.3,54.6h-24c-1.1,0-2-0.9-2-2s0.9-2,2-2h24c1.1,0,2,0.9,2,2S72.4,54.6,71.3,54.6z M71.3,47.3h-24c-1.1,0-2-0.9-2-2s0.9-2,2-2
			h24c1.1,0,2,0.9,2,2S72.4,47.3,71.3,47.3z"/>
	</g>
	<g>
		<path class="st2" d="M71.6,19.5L71.6,19.5H25c-3,0-5.5,2.4-5.5,5.5v10.8H77V25C77,22,74.6,19.5,71.6,19.5z M26.6,31.5
			c-1.8,0-3.3-1.5-3.3-3.3s1.5-3.3,3.3-3.3s3.3,1.5,3.3,3.3S28.4,31.5,26.6,31.5z M35.7,31.5c-1.8,0-3.3-1.5-3.3-3.3
			s1.5-3.3,3.3-3.3s3.3,1.5,3.3,3.3S37.6,31.5,35.7,31.5z M44.9,31.5c-1.8,0-3.3-1.5-3.3-3.3s1.5-3.3,3.3-3.3s3.3,1.5,3.3,3.3
			S46.8,31.5,44.9,31.5z"/>
	</g>
</g>
</svg>
